<svg xmlns="http://www.w3.org/2000/svg" width="975" height="396" viewBox="0 0 975 396"><g transform="translate(-472 -4676)"><rect width="106" height="53" rx="10" transform="translate(1341 5019)" fill="#50946e"/><text transform="translate(1368 5032)" fill="#fff" font-size="20" font-family="Poppins-SemiBold, Poppins" font-weight="600"><tspan x="0.35" y="21">Send</tspan></text><g transform="translate(0 -47)"><g transform="translate(472 4752)" fill="none" stroke="#e7dfc6" stroke-width="2"><rect width="381" height="53" rx="10" stroke="none"/><rect x="1" y="1" width="379" height="51" rx="9" fill="none"/></g><g transform="translate(967 4752)" fill="none" stroke="#e7dfc6" stroke-width="2"><rect width="480" height="284" rx="10" stroke="none"/><rect x="1" y="1" width="478" height="282" rx="9" fill="none"/></g><text transform="translate(493 4784)" fill="#50946e" font-size="16" font-family="Poppins-Light, Poppins" font-weight="300"><tspan x="0" y="0">John Doe</tspan></text><text transform="translate(988 4784)" fill="#50946e" font-size="16" font-family="Poppins-Light, Poppins" font-weight="300"><tspan x="0" y="0">Type something here...</tspan></text><text transform="translate(472 4740)" fill="#50946e" font-size="16" font-family="Poppins-SemiBold, Poppins" font-weight="600"><tspan x="0" y="0">Name</tspan></text><text transform="translate(967 4740)" fill="#50946e" font-size="16" font-family="Poppins-SemiBold, Poppins" font-weight="600"><tspan x="0" y="0">Your message</tspan></text><g transform="translate(472 4869)" fill="none" stroke="#e7dfc6" stroke-width="2"><rect width="381" height="53" rx="10" stroke="none"/><rect x="1" y="1" width="379" height="51" rx="9" fill="none"/></g><g transform="translate(472 4983)" fill="none" stroke="#e7dfc6" stroke-width="2"><rect width="381" height="53" rx="10" stroke="none"/><rect x="1" y="1" width="379" height="51" rx="9" fill="none"/></g><text transform="translate(493 4900)" fill="#50946e" font-size="16" font-family="Poppins-Light, Poppins" font-weight="300"><tspan x="0" y="0">youremail@mail.com</tspan></text><text transform="translate(493 5014)" fill="#50946e" font-size="16" font-family="Poppins-Light, Poppins" font-weight="300"><tspan x="0" y="0">0123 456 789</tspan></text><text transform="translate(472 4856)" fill="#50946e" font-size="16" font-family="Poppins-SemiBold, Poppins" font-weight="600"><tspan x="0" y="0">E-mail</tspan></text><text transform="translate(472 4970)" fill="#50946e" font-size="16" font-family="Poppins-SemiBold, Poppins" font-weight="600"><tspan x="0" y="0">Phone number</tspan></text><g transform="translate(815 4887)"><rect width="17" height="17" fill="none"/><path d="M6.715,11.678,0,4.963,1.362,3.6,6.715,8.856,15.571,0l1.362,1.362Z" transform="translate(0 2.117)" fill="#50946e"/></g></g></g></svg>