<svg xmlns="http://www.w3.org/2000/svg" width="24" height="18.264" viewBox="0 0 24 18.264"><path d="M21.07,57.75H2.935A2.937,2.937,0,0,0,0,60.685V73.08a2.937,2.937,0,0,0,2.935,2.935h18.13A2.937,2.937,0,0,0,24,73.08V60.69A2.934,2.934,0,0,0,21.07,57.75Zm1.594,15.33a1.6,1.6,0,0,1-1.594,1.594H2.935A1.6,1.6,0,0,1,1.341,73.08V60.69A1.6,1.6,0,0,1,2.935,59.1h18.13a1.6,1.6,0,0,1,1.594,1.594V73.08Z" transform="translate(0 -57.75)" fill="#50946e"/><path d="M67.713,115.069l5.677-5.042a.641.641,0,0,0,.048-.908.656.656,0,0,0-.917-.048l-7.828,6.958-1.527-1.351s-.01-.01-.01-.014a.958.958,0,0,0-.106-.09l-6.215-5.508a.652.652,0,0,0-.917.052.637.637,0,0,0,.053.908l5.744,5.084-5.72,5.3a.64.64,0,0,0-.029.908.666.666,0,0,0,.475.2.653.653,0,0,0,.442-.171l5.806-5.379,1.575,1.394a.651.651,0,0,0,.864,0l1.618-1.436,5.773,5.432a.655.655,0,0,0,.917-.024.64.64,0,0,0-.024-.908Z" transform="translate(-52.68 -106.083)" fill="#50946e"/></svg>