<svg xmlns="http://www.w3.org/2000/svg" width="1920" height="328.5" viewBox="0 0 1920 328.5"><path d="M2648,858.5H728V582.291c35.77-.165,52.749-11.257,72.41-24.1C820.64,544.977,843.568,530,887.338,530s66.7,14.976,86.927,28.19c19.8,12.936,36.9,24.108,73.2,24.108s53.4-11.172,73.2-24.108C1140.9,544.976,1163.828,530,1207.6,530s66.7,14.977,86.929,28.19c19.8,12.936,36.9,24.108,73.2,24.108s53.4-11.171,73.2-24.106c20.23-13.214,43.158-28.192,86.931-28.192s66.7,14.977,86.927,28.191c19.8,12.936,36.9,24.107,73.2,24.107s53.4-11.172,73.2-24.108c20.229-13.214,43.156-28.19,86.928-28.19s66.7,14.977,86.927,28.191c19.8,12.935,36.905,24.107,73.2,24.107s53.4-11.17,73.2-24.1c20.231-13.216,43.16-28.194,86.93-28.194s66.7,14.977,86.93,28.19c19.8,12.936,36.9,24.108,73.2,24.108s53.4-11.172,73.208-24.108c20.231-13.214,43.159-28.19,86.931-28.19s66.7,14.977,86.933,28.192c19.663,12.843,36.645,23.935,72.414,24.1V858.5Z" transform="translate(-728 -530)" fill="#50946e"/></svg>