<svg xmlns="http://www.w3.org/2000/svg" width="292.943" height="40" viewBox="0 0 292.943 40"><g transform="translate(0 0.52)"><path d="M154.337,423.02l-.286.289q-2.864,2.774-8.16,7.919T139.22,437.7l17.636,24.046.058.058c0,.038.037.1.114.173h-4.237a1.633,1.633,0,0,1-.172-.231l-.057-.058-16.09-21.33-7.5,7.284v14.335h-3.493V423.02h3.493v21.85l22.217-21.85Z" transform="translate(-125.478 -423.02)" fill="#50946e"/></g><g transform="translate(36.417)"><path d="M218.6,441.7a18.856,18.856,0,0,1,6.041-14.277,22.6,22.6,0,0,1,30.062,0,18.859,18.859,0,0,1,6.041,14.277q0,9.017-5.783,14.509T239.668,461.7q-9.506,0-15.289-5.492T218.6,441.7Zm3.722,0q0,8.094,4.781,13.006t12.569,4.913q7.786,0,12.54-4.942T256.96,441.7a17.673,17.673,0,0,0-4.953-12.8,17.509,17.509,0,0,0-24.736,0A17.67,17.67,0,0,0,222.318,441.7Z" transform="translate(-218.596 -421.702)" fill="#50946e"/></g><g transform="translate(87.665 0.52)"><path d="M378.494,423.02l-.286.289q-2.864,2.774-8.159,7.919t-6.671,6.474l17.637,24.046.057.058c0,.038.038.1.115.173h-4.237a1.667,1.667,0,0,1-.172-.231l-.057-.058-16.09-21.33-7.5,7.284v14.335h-3.493V423.02h3.493v21.85l22.217-21.85Z" transform="translate(-349.635 -423.02)" fill="#50946e"/></g><g transform="translate(175.56 0.52)"><path d="M603.18,459.436V423.02h2.462v38.959h-4.924l-23.82-35.26v35.26h-2.52V423.02h4.18Z" transform="translate(-574.378 -423.02)" fill="#50946e"/></g><g transform="translate(213.524 0.52)"><path d="M671.449,461.979l.114-.289h.058l19.01-38.381q.056,0,.115-.231l.058-.058h3.836l19.068,38.67.057.173.057.116h-3.894l-4.982-10.232h-25.71l.916-1.849H704.03l-11.91-24.393L674.2,461.979Z" transform="translate(-671.449 -423.02)" fill="#50946e"/></g><g transform="translate(257.041 0.52)"><path d="M802.42,461.979h-3.493V425.1h-16.2V423.02h35.9V425.1h-16.2Z" transform="translate(-782.722 -423.02)" fill="#50946e"/></g><g transform="translate(124.083)"><g transform="translate(0 13.921)"><path d="M481.118,463.042q0,8.036-4.753,12.977t-12.54,4.942q-7.788,0-12.569-4.913t-4.781-13.006a20.884,20.884,0,0,1,.392-4.112,1.651,1.651,0,0,0-1.619-1.966h-.363a1.644,1.644,0,0,0-1.6,1.266,21.274,21.274,0,0,0-.53,4.812q0,9.017,5.784,14.509t15.288,5.492q9.5,0,15.288-5.492t5.783-14.509a21.243,21.243,0,0,0-.53-4.812,1.643,1.643,0,0,0-1.6-1.266h-.421a1.651,1.651,0,0,0-1.619,1.966A20.879,20.879,0,0,1,481.118,463.042Z" transform="translate(-442.753 -456.964)" fill="#50946e"/></g><g transform="translate(2.812 0)"><path d="M455.806,428.9a17.508,17.508,0,0,1,24.736,0,17.337,17.337,0,0,1,2.77,3.74,1.635,1.635,0,0,0,1.435.852h.057a1.66,1.66,0,0,0,1.389-2.557,19.938,19.938,0,0,0-2.959-3.51,22.6,22.6,0,0,0-30.062,0,19.938,19.938,0,0,0-2.959,3.51,1.659,1.659,0,0,0,1.389,2.557h0a1.635,1.635,0,0,0,1.434-.852A17.341,17.341,0,0,1,455.806,428.9Z" transform="translate(-449.942 -421.702)" fill="#50946e"/></g></g><g transform="translate(156.523 9.327)"><path d="M525.7,445.327" transform="translate(-525.702 -445.327)" fill="#50946e"/></g><g transform="translate(130.425 13.154)"><path d="M480.672,458.864a6.364,6.364,0,0,1-3.91-1.258,5.167,5.167,0,0,0-6.127,0,6.707,6.707,0,0,1-7.82,0,4.855,4.855,0,0,0-3.063-1.006.79.79,0,0,1,0-1.579,6.364,6.364,0,0,1,3.91,1.257,5.166,5.166,0,0,0,6.127,0,6.708,6.708,0,0,1,7.82,0,5.168,5.168,0,0,0,6.128,0,6.365,6.365,0,0,1,3.91-1.257.79.79,0,0,1,0,1.579,4.859,4.859,0,0,0-3.064,1.006A6.365,6.365,0,0,1,480.672,458.864Z" transform="translate(-458.969 -455.021)" fill="#e7dfc6"/></g></svg>