<svg xmlns="http://www.w3.org/2000/svg" width="16.744" height="16" viewBox="0 0 16.744 16"><path d="M16.744,19.368v6.19H13.155V19.782c0-1.451-.519-2.441-1.818-2.441A1.964,1.964,0,0,0,9.5,18.654a2.456,2.456,0,0,0-.119.875v6.029H5.787s.048-9.782,0-10.8h3.59v1.53l-.024.035h.024v-.035a3.564,3.564,0,0,1,3.235-1.784C14.973,14.508,16.744,16.052,16.744,19.368ZM2.031,9.558a1.871,1.871,0,1,0-.048,3.731h.024a1.871,1.871,0,1,0,.024-3.731Zm-1.818,16H3.8v-10.8H.213Z" transform="translate(0 -9.558)" fill="#fff"/></svg>