<?xml version="1.0" encoding="iso-8859-1"?>
<!-- Generator: Adobe Illustrator 23.0.6, SVG Export Plug-In . SVG Version: 6.00 Build 0)  -->
<svg version="1.1" id="Capa_1" xmlns="http://www.w3.org/2000/svg" xmlns:xlink="http://www.w3.org/1999/xlink" x="0px" y="0px"
	 viewBox="-49 141 512 512" style="enable-background:new -49 141 512 512;" xml:space="preserve">
<path style="fill:#50946E;" d="M457.955,142.314c-3.119-1.78-6.955-1.75-10.045,0.078L264.656,250.756
	c-4.754,2.811-6.329,8.943-3.518,13.697c2.81,4.753,8.942,6.328,13.697,3.518l131.482-77.749L161.411,444.335L39.603,407.069
	l158.965-94c4.754-2.812,6.329-8.944,3.518-13.698c-2.81-4.753-8.943-6.33-13.697-3.518L9.91,401.392
	c-3.41,2.017-5.309,5.856-4.84,9.791s3.216,7.221,7.004,8.38l145.469,44.504L221.72,580.88c0.067,0.121,0.136,0.223,0.207,0.314
	c1.071,1.786,2.676,3.245,4.678,4.087c1.253,0.527,2.57,0.784,3.878,0.784c2.563,0,5.086-0.986,6.991-2.849l73.794-72.12
	l138.806,42.466c0.96,0.293,1.945,0.438,2.925,0.438c2.116,0,4.206-0.672,5.948-1.961C461.496,550.153,463,547.17,463,544V151
	C463,147.409,461.074,144.093,457.955,142.314z M370.584,256.12L222.265,470.23c-1.158,1.673-1.779,3.659-1.779,5.694v61.171
	l-43.823-79.765L370.584,256.12z M240.486,552.309v-62.867l48.99,14.988L240.486,552.309z M246.501,470.367L443,186.704v343.779
	L246.501,470.367z"/>
<path style="fill:#E7DFC6;" d="M115.423,488.577c-3.906-3.905-10.236-3.905-14.143,0L7.928,581.929
	c-3.905,3.905-3.905,10.237,0,14.143C9.882,598.024,12.441,599,15,599s5.118-0.976,7.071-2.929l93.352-93.352
	C119.328,498.815,119.328,492.483,115.423,488.577z"/>
<path style="fill:#E7DFC6;" d="M-23.071,612.929l-23,23c-3.905,3.905-3.905,10.237,0,14.143C-44.118,652.024-41.559,653-39,653
	s5.118-0.977,7.071-2.929l23-23c3.905-3.905,3.905-10.237,0-14.143C-12.835,609.025-19.165,609.025-23.071,612.929z"/>
<path style="fill:#E7DFC6;" d="M86.58,632.41c-2.641,0-5.21,1.07-7.07,2.93s-2.93,4.43-2.93,7.07c0,2.63,1.069,5.21,2.93,7.07
	c1.86,1.86,4.44,2.93,7.07,2.93s5.21-1.07,7.069-2.93c1.86-1.86,2.931-4.44,2.931-7.07c0-2.64-1.07-5.21-2.931-7.07
	C91.79,633.48,89.21,632.41,86.58,632.41z"/>
<path style="fill:#E7DFC6;" d="M153.909,560.935l-49.446,49.445c-3.905,3.905-3.905,10.237,0,14.142
	c1.953,1.953,4.512,2.929,7.071,2.929s5.118-0.977,7.071-2.929l49.446-49.445c3.905-3.905,3.905-10.237,0-14.142
	C164.148,557.03,157.818,557.03,153.909,560.935z"/>
<path style="fill:#E7DFC6;" d="M324.562,557.139l-49.58,49.58c-3.905,3.905-3.905,10.237,0,14.143
	c1.953,1.952,4.512,2.929,7.071,2.929s5.118-0.977,7.071-2.929l49.58-49.58c3.905-3.905,3.905-10.237,0-14.143
	C334.798,553.235,328.468,553.235,324.562,557.139z"/>
<path style="fill:#50946E;" d="M227.43,294.38c2.63,0,5.21-1.06,7.07-2.93c1.859-1.86,2.93-4.43,2.93-7.06
	c0-2.64-1.07-5.22-2.93-7.08c-1.86-1.86-4.44-2.93-7.07-2.93s-5.21,1.07-7.07,2.93c-1.859,1.86-2.93,4.44-2.93,7.08
	c0,2.63,1.07,5.2,2.93,7.06C222.22,293.32,224.8,294.38,227.43,294.38z"/>
</svg>
