<svg xmlns="http://www.w3.org/2000/svg" width="24" height="24.035" viewBox="0 0 24 24.035"><path d="M19.322,40.9a2.364,2.364,0,0,0-1.715-.786,2.444,2.444,0,0,0-1.735.781l-1.6,1.6c-.132-.071-.264-.137-.391-.2-.183-.091-.355-.178-.5-.269a17.422,17.422,0,0,1-4.175-3.8,10.279,10.279,0,0,1-1.37-2.161c.416-.38.8-.776,1.177-1.157.142-.142.284-.289.426-.431a2.327,2.327,0,0,0,0-3.51L8.051,29.577c-.157-.157-.32-.32-.472-.482-.3-.315-.624-.639-.954-.944a2.4,2.4,0,0,0-1.7-.746,2.485,2.485,0,0,0-1.725.746l-.01.01L1.466,29.9a3.711,3.711,0,0,0-1.1,2.359,8.893,8.893,0,0,0,.649,3.764A21.842,21.842,0,0,0,4.9,42.5a23.872,23.872,0,0,0,7.949,6.224,12.385,12.385,0,0,0,4.464,1.319c.107.005.218.01.32.01a3.822,3.822,0,0,0,2.927-1.258c.005-.01.015-.015.02-.025a11.532,11.532,0,0,1,.888-.918c.218-.208.441-.426.659-.654a2.531,2.531,0,0,0,.766-1.755,2.438,2.438,0,0,0-.781-1.74Zm1.816,5.342c-.005,0-.005.005,0,0-.2.213-.4.406-.619.619a13.339,13.339,0,0,0-.979,1.015,2.445,2.445,0,0,1-1.907.807c-.076,0-.157,0-.233-.005a11,11,0,0,1-3.957-1.187A22.534,22.534,0,0,1,5.956,41.63,20.594,20.594,0,0,1,2.3,35.548a7.243,7.243,0,0,1-.568-3.176,2.329,2.329,0,0,1,.7-1.507l1.73-1.73a1.153,1.153,0,0,1,.771-.36,1.085,1.085,0,0,1,.741.355l.015.015c.309.289.6.588.913.908.157.162.32.325.482.492l1.385,1.385a.968.968,0,0,1,0,1.573c-.147.147-.289.294-.436.436-.426.436-.832.842-1.273,1.238-.01.01-.02.015-.025.025a1.035,1.035,0,0,0-.264,1.152l.015.046a11.118,11.118,0,0,0,1.638,2.673l.005.005a18.619,18.619,0,0,0,4.5,4.1,6.925,6.925,0,0,0,.624.34c.183.091.355.178.5.269.02.01.041.025.061.036a1.1,1.1,0,0,0,.5.127,1.085,1.085,0,0,0,.771-.35l1.735-1.735a1.148,1.148,0,0,1,.766-.38,1.033,1.033,0,0,1,.73.37l.01.01,2.8,2.8A1,1,0,0,1,21.138,46.246Z" transform="translate(-0.345 -26.016)" fill="#50946e"/><path d="M245.507,87.284a6.529,6.529,0,0,1,5.316,5.316.681.681,0,0,0,.675.568.907.907,0,0,0,.117-.01.685.685,0,0,0,.563-.791,7.894,7.894,0,0,0-6.432-6.432.688.688,0,0,0-.791.558A.677.677,0,0,0,245.507,87.284Z" transform="translate(-232.536 -81.567)" fill="#50946e"/><path d="M260.163,10.6A13,13,0,0,0,249.571.011a.684.684,0,1,0-.223,1.349,11.611,11.611,0,0,1,9.466,9.466.681.681,0,0,0,.675.568.905.905,0,0,0,.117-.01A.672.672,0,0,0,260.163,10.6Z" transform="translate(-236.173 0)" fill="#50946e"/></svg>