<svg xmlns="http://www.w3.org/2000/svg" width="1920" height="702.298" viewBox="0 0 1920 702.298"><path d="M2157.514,1930c-36.3,0-53.4-11.171-73.2-24.106-20.23-13.214-43.16-28.192-86.932-28.192s-66.7,14.976-86.925,28.19c-19.805,12.937-36.908,24.109-73.206,24.109s-53.4-11.171-73.2-24.105c-20.231-13.215-43.161-28.193-86.93-28.193s-66.7,14.976-86.927,28.19c-19.8,12.936-36.9,24.108-73.2,24.108s-53.4-11.17-73.2-24.1c-20.232-13.216-43.163-28.194-86.932-28.194s-66.7,14.976-86.928,28.19c-19.8,12.937-36.906,24.109-73.205,24.109s-53.4-11.17-73.2-24.1c-20.231-13.215-43.162-28.194-86.932-28.194s-66.7,14.976-86.925,28.189c-19.8,12.937-36.905,24.109-73.2,24.109s-53.4-11.17-73.2-24.1c-20.231-13.215-43.16-28.194-86.931-28.194s-66.7,14.976-86.924,28.188c-19.664,12.845-36.646,23.938-72.414,24.1V1280c35.768-.165,52.749-11.257,72.41-24.1,20.23-13.214,43.158-28.19,86.927-28.19s66.7,14.977,86.929,28.192c19.8,12.936,36.9,24.106,73.2,24.106s53.4-11.172,73.2-24.108c20.229-13.213,43.157-28.19,86.927-28.19s66.7,14.977,86.929,28.191c19.8,12.936,36.9,24.107,73.2,24.107s53.4-11.171,73.2-24.106c20.23-13.215,43.159-28.192,86.931-28.192s66.7,14.977,86.928,28.191c19.8,12.936,36.9,24.107,73.2,24.107s53.4-11.172,73.2-24.108c20.229-13.213,43.158-28.19,86.927-28.19s66.7,14.977,86.928,28.191c19.8,12.936,36.906,24.107,73.2,24.107s53.4-11.171,73.2-24.107c20.23-13.214,43.158-28.191,86.927-28.191s66.7,14.977,86.932,28.192c19.8,12.935,36.9,24.106,73.2,24.106s53.4-11.172,73.208-24.108c20.23-13.214,43.158-28.19,86.93-28.19s66.7,14.977,86.933,28.191c19.663,12.843,36.645,23.935,72.414,24.1v650c-35.767-.165-52.748-11.255-72.409-24.1-20.233-13.216-43.165-28.195-86.937-28.195s-66.7,14.976-86.93,28.19C2210.919,1918.832,2193.815,1930,2157.514,1930Z" transform="translate(-557 -1227.706)" fill="rgba(231,223,198,0.5)"/></svg>