<svg xmlns="http://www.w3.org/2000/svg" width="297.452" height="282" viewBox="0 0 297.452 282"><g transform="translate(-1165 -991)"><circle cx="141" cy="141" r="141" transform="translate(1165 991)" fill="#e7dfc6"/><g transform="translate(1350.403 3535.132) rotate(180)"><g transform="translate(-112.049 2301.132)"><path d="M12.026,2313.2c-6.56,0-9.857-2.432-13.046-4.784-2.974-2.193-5.783-4.265-11.493-4.265s-8.519,2.072-11.493,4.265c-3.189,2.352-6.486,4.784-13.046,4.784s-9.857-2.432-13.046-4.784c-2.974-2.193-5.783-4.265-11.492-4.265s-8.519,2.072-11.493,4.265c-3.189,2.352-6.486,4.784-13.045,4.784s-9.857-2.432-13.046-4.784c-2.974-2.193-5.783-4.265-11.492-4.265a1.45,1.45,0,0,1-1.385-1.508,1.45,1.45,0,0,1,1.385-1.508c6.559,0,9.857,2.432,13.045,4.784,2.974,2.193,5.783,4.265,11.492,4.265s8.518-2.072,11.492-4.265c3.189-2.352,6.487-4.784,13.046-4.784s9.857,2.432,13.045,4.784c2.974,2.193,5.783,4.265,11.492,4.265s8.519-2.072,11.492-4.265c3.189-2.352,6.486-4.784,13.046-4.784s9.857,2.432,13.046,4.784c2.974,2.193,5.783,4.265,11.493,4.265s8.519-2.072,11.493-4.265c3.189-2.352,6.487-4.784,13.046-4.784a1.514,1.514,0,0,1,0,3.016c-5.71,0-8.519,2.072-11.493,4.265C21.884,2310.766,18.586,2313.2,12.026,2313.2Z" transform="translate(112.049 -2301.132)" fill="#50946e"/></g><g transform="translate(-112.049 2319.066)"><path d="M12.026,2368.94c-6.56,0-9.857-2.432-13.046-4.784-2.974-2.193-5.783-4.265-11.493-4.265s-8.519,2.072-11.493,4.265c-3.189,2.352-6.486,4.784-13.046,4.784s-9.857-2.432-13.046-4.784c-2.974-2.193-5.783-4.265-11.492-4.265s-8.519,2.072-11.493,4.265c-3.189,2.352-6.486,4.784-13.045,4.784s-9.857-2.432-13.046-4.784c-2.974-2.193-5.783-4.265-11.492-4.265a1.45,1.45,0,0,1-1.385-1.508,1.45,1.45,0,0,1,1.385-1.508c6.559,0,9.857,2.432,13.045,4.784,2.974,2.193,5.783,4.265,11.492,4.265s8.518-2.072,11.492-4.265c3.189-2.352,6.487-4.784,13.046-4.784s9.857,2.432,13.045,4.784c2.974,2.193,5.783,4.265,11.492,4.265s8.519-2.072,11.492-4.265c3.189-2.352,6.486-4.784,13.046-4.784s9.857,2.432,13.046,4.784c2.974,2.193,5.783,4.265,11.493,4.265s8.519-2.072,11.493-4.265c3.189-2.352,6.487-4.784,13.046-4.784a1.514,1.514,0,0,1,0,3.017c-5.71,0-8.519,2.072-11.493,4.265C21.884,2366.508,18.586,2368.94,12.026,2368.94Z" transform="translate(112.049 -2356.874)" fill="#50946e"/></g></g></g></svg>