<?xml version="1.0" encoding="iso-8859-1"?>
<!-- Generator: Adobe Illustrator 23.0.6, SVG Export Plug-In . SVG Version: 6.00 Build 0)  -->
<svg version="1.1" id="Capa_1" xmlns="http://www.w3.org/2000/svg" xmlns:xlink="http://www.w3.org/1999/xlink" x="0px" y="0px"
	 viewBox="-49 141 512 512" style="enable-background:new -49 141 512 512;" xml:space="preserve">
<path style="fill:#50946E;" d="M404.034,502.323c-2.809-1.164-6.04-0.521-8.19,1.628l-82.126,82.126
	c-2.149,2.15-2.791,5.382-1.628,8.19c1.162,2.809,3.904,4.639,6.943,4.639h82.126c4.151,0,7.515-3.364,7.515-7.515v-82.126
	C408.673,506.226,406.842,503.485,404.034,502.323z M393.644,583.876h-56.47l56.469-56.469L393.644,583.876L393.644,583.876z"/>
<path style="fill:#E7DFC6;" d="M458.36,381.87c-2.81-1.17-6.04-0.52-8.19,1.63L427.66,406V252.97c0-4.15-3.36-7.51-7.51-7.51h-78.11
	l-1.37,1.37c0,0-0.01,0-0.01,0.01l-13.65,13.65h85.62v160.54l-107.49,107.5c-2.94,2.94-2.94,7.69,0,10.63
	c0.18,0.18,0.37,0.35,0.57,0.51c1.38,1.13,3.06,1.69,4.74,1.69s3.37-0.56,4.74-1.69c0.2-0.16,0.39-0.33,0.58-0.51c0,0,0,0,0-0.01
	l132.2-132.2v66.3h-13.86c-4.15,0-7.52,3.37-7.52,7.52c0,4.15,3.37,7.51,7.52,7.51h13.86v22.65h-13.86c-4.15,0-7.52,3.36-7.52,7.51
	s3.37,7.52,7.52,7.52h13.86v22.64h-13.86c-4.15,0-7.52,3.37-7.52,7.52s3.37,7.51,7.52,7.51h13.86v22.65h-13.86
	c-4.15,0-7.52,3.36-7.52,7.51c0,4.15,3.37,7.52,7.52,7.52h13.86v35.84h-230.2l75.91-75.91c1.46-1.46,2.2-3.39,2.2-5.31
	c0-1.93-0.74-3.85-2.2-5.32c-0.34-0.33-0.7-0.63-1.08-0.88c-2.92-2.01-6.95-1.71-9.55,0.88l-30.46,30.46H7.93
	c-22.79,0-41.14-17.79-41.86-40.54c0.04-1.43,0.15-2.85,0.33-4.25c0-0.01,0-0.01,0-0.02c0.09-0.67,0.19-1.33,0.3-1.99
	c0.01-0.07,0.03-0.15,0.04-0.22c0.11-0.59,0.22-1.17,0.35-1.76c0.04-0.16,0.08-0.32,0.11-0.48c0.12-0.49,0.24-0.98,0.37-1.47
	c0.08-0.26,0.15-0.52,0.23-0.79c0.11-0.38,0.22-0.76,0.34-1.14c0.12-0.37,0.25-0.75,0.38-1.12c0.09-0.26,0.18-0.52,0.28-0.78
	c0.19-0.49,0.38-0.98,0.58-1.46c0.06-0.14,0.11-0.28,0.17-0.42c0.26-0.6,0.53-1.19,0.81-1.78c0.01-0.03,0.02-0.05,0.03-0.08
	c5.88-12.16,17.18-21.23,30.75-24.04c0.04-0.01,0.08-0.02,0.12-0.03c0.62-0.13,1.25-0.23,1.88-0.33c0.1-0.02,0.21-0.04,0.31-0.06
	c0.58-0.09,1.15-0.15,1.73-0.22c0.16-0.02,0.32-0.04,0.49-0.06c0.55-0.05,1.11-0.09,1.68-0.13c0.18-0.01,0.35-0.03,0.53-0.04
	c0.74-0.03,1.48-0.05,2.22-0.05c4.15,0,7.52-3.37,7.52-7.52V435.8c0-4.15-3.37-7.51-7.52-7.51c-4.15,0-7.51,3.36-7.51,7.51v47.45
	c-12.69,1.61-24.47,7.27-33.76,16.34c-0.97,0.95-1.9,1.94-2.8,2.95V222.7c0-21.74,15.82-39.86,36.56-43.43v226.48
	c0,2.07,0.84,3.95,2.2,5.31c1.36,1.36,3.23,2.2,5.31,2.2c4.15,0,7.52-3.36,7.52-7.51V260.49h240.37l3.03-3.03c0.01,0,0.01,0,0.01,0
	l12-12H17.62v-74.35c0-4.15-3.36-7.51-7.51-7.51c-32.6,0-59.11,26.51-59.11,59.1v319.19c0,0.55,0.06,1.09,0.18,1.61
	c1.04,13.83,7.02,26.68,17.02,36.44c10.69,10.42,24.79,16.16,39.73,16.16h229.64l-43.25,43.25c-2.15,2.15-2.8,5.38-1.63,8.19
	c1.16,2.81,3.9,4.64,6.94,4.64h255.85c4.15,0,7.52-3.36,7.52-7.52V388.81C463,385.77,461.17,383.03,458.36,381.87z"/>
<path style="fill:#50946E;" d="M405.281,171.07l-23.35-23.36c-4.33-4.33-10.08-6.71-16.2-6.71s-11.88,2.38-16.21,6.71l-20.2,20.21
	l-24.42,24.41l-26.48,26.49l-25.82,25.82l-15.03,15.03l-8.82,8.82l-3.64,3.63l-29.09,29.09c-2.93,2.94-2.93,7.69,0,10.63
	c2.94,2.93,7.7,2.93,10.63,0l54.37-54.38c0.01,0,0.01,0,0.01,0l49.18-49.19l34.51,34.51l-4.05,4.05c0,0-0.01,0-0.01,0.01
	l-151.53,151.53l-34.5-34.51l29.87-29.87c2.93-2.93,2.93-7.69,0-10.62c-2.94-2.94-7.7-2.94-10.63,0l-35.18,35.18
	c-0.19,0.19-0.37,0.38-0.53,0.59c-0.06,0.07-0.11,0.14-0.16,0.21c-0.1,0.14-0.21,0.28-0.31,0.43c-0.05,0.09-0.1,0.18-0.15,0.26
	c-0.09,0.15-0.17,0.29-0.24,0.43c-0.05,0.1-0.09,0.19-0.13,0.29c-0.07,0.15-0.13,0.29-0.19,0.45c-0.02,0.05-0.05,0.1-0.07,0.15
	l-14.64,41.48l-9.98,28.28c-0.13,0.37-0.23,0.75-0.3,1.14h-24.99c-4.15,0-7.51,3.36-7.51,7.51c0,4.15,3.36,7.52,7.51,7.52h208.12
	c4.15,0,7.51-3.37,7.51-7.52c0-4.15-3.36-7.51-7.51-7.51h-149.32l45.83-16.18c0.04-0.01,0.08-0.03,0.12-0.05
	c0.17-0.06,0.35-0.14,0.52-0.22c0.07-0.03,0.14-0.06,0.21-0.09c0.18-0.09,0.35-0.19,0.53-0.29c0.05-0.04,0.11-0.07,0.17-0.11
	c0.18-0.11,0.35-0.24,0.53-0.37c0.04-0.03,0.09-0.06,0.13-0.1c0.21-0.17,0.41-0.35,0.61-0.54l169.67-169.67l15.6-15.61l0.01,0.01
	l5.35-5.36c0-0.01,0-0.01,0.01-0.01l20.19-20.2c4.33-4.33,6.71-10.08,6.71-16.2C411.991,181.15,409.611,175.39,405.281,171.07z
	 M153.861,413.48l-14.34-14.35l7.6-21.52l28.27,28.27L153.861,413.48z M355.351,232.15l-34.5-34.5l13.78-13.79l34.51,34.5
	L355.351,232.15z M394.661,192.84l-14.89,14.9l-34.51-34.51l14.89-14.89c3.07-3.07,8.08-3.07,11.15,0l23.36,23.35
	C397.731,184.77,397.731,189.77,394.661,192.84z"/>
</svg>
